<svg xmlns="http://www.w3.org/2000/svg" xmlns:xlink="http://www.w3.org/1999/xlink" width="378pt" height="508pt" viewBox="0.00 0.00 378.00 508.00">
<g id="graph0" class="graph" transform="scale(1 1) rotate(0) translate(4 503.8)">
<title>categories</title>
<polygon fill="white" stroke="none" points="-4,4 -4,-503.8 374.32,-503.8 374.32,4 -4,4"/>
<!-- categories -->
<g id="node1" class="node">
<title>categories</title>
<polygon fill="none" stroke="black" points="185.63,-25.7 185.63,-100.1 370.32,-100.1 370.32,-25.7 185.63,-25.7"/>
<text xml:space="preserve" text-anchor="middle" x="277.98" y="-83.5" font-family="Times,serif" font-size="14.00">categories</text>
<polyline fill="none" stroke="black" points="185.63,-75.3 370.32,-75.3"/>
<text xml:space="preserve" text-anchor="start" x="193.63" y="-58.7" font-family="Times,serif" font-size="14.00">category_name : varchar(255)</text>
<polyline fill="none" stroke="black" points="185.63,-50.5 370.32,-50.5"/>
<text xml:space="preserve" text-anchor="start" x="193.63" y="-33.9" font-family="Times,serif" font-size="14.00">category_id : bigint</text>
</g>
<!-- customers -->
<g id="node2" class="node">
<title>customers</title>
<polygon fill="none" stroke="black" points="14.76,-0.5 14.76,-125.3 167.2,-125.3 167.2,-0.5 14.76,-0.5"/>
<text xml:space="preserve" text-anchor="middle" x="90.98" y="-108.7" font-family="Times,serif" font-size="14.00">customers</text>
<polyline fill="none" stroke="black" points="14.76,-100.5 167.2,-100.5"/>
<text xml:space="preserve" text-anchor="start" x="22.76" y="-83.9" font-family="Times,serif" font-size="14.00">first_name : varchar(50)</text>
<text xml:space="preserve" text-anchor="start" x="22.76" y="-67.1" font-family="Times,serif" font-size="14.00"> last_name : varchar(50)</text>
<text xml:space="preserve" text-anchor="start" x="22.76" y="-50.3" font-family="Times,serif" font-size="14.00"> email : varchar(255)</text>
<text xml:space="preserve" text-anchor="start" x="22.76" y="-33.5" font-family="Times,serif" font-size="14.00"> password : text</text>
<polyline fill="none" stroke="black" points="14.76,-25.3 167.2,-25.3"/>
<text xml:space="preserve" text-anchor="start" x="22.76" y="-8.7" font-family="Times,serif" font-size="14.00">customer_id : bigint</text>
</g>
<!-- order_details -->
<g id="node3" class="node">
<title>order_details</title>
<polygon fill="none" stroke="black" points="101.56,-374.5 101.56,-499.3 268.4,-499.3 268.4,-374.5 101.56,-374.5"/>
<text xml:space="preserve" text-anchor="middle" x="184.98" y="-482.7" font-family="Times,serif" font-size="14.00">order_details</text>
<polyline fill="none" stroke="black" points="101.56,-474.5 268.4,-474.5"/>
<text xml:space="preserve" text-anchor="start" x="109.56" y="-457.9" font-family="Times,serif" font-size="14.00">order_id : bigint</text>
<text xml:space="preserve" text-anchor="start" x="109.56" y="-441.1" font-family="Times,serif" font-size="14.00"> product_id : bigint</text>
<text xml:space="preserve" text-anchor="start" x="109.56" y="-424.3" font-family="Times,serif" font-size="14.00"> quantity : integer</text>
<text xml:space="preserve" text-anchor="start" x="109.56" y="-407.5" font-family="Times,serif" font-size="14.00"> unit_price : numeric(10,2)</text>
<polyline fill="none" stroke="black" points="101.56,-399.3 268.4,-399.3"/>
<text xml:space="preserve" text-anchor="start" x="109.56" y="-382.7" font-family="Times,serif" font-size="14.00">order_details_id : bigint</text>
</g>
<!-- orders -->
<g id="node4" class="node">
<title>orders</title>
<polygon fill="none" stroke="black" points="0,-195.9 0,-303.9 183.96,-303.9 183.96,-195.9 0,-195.9"/>
<text xml:space="preserve" text-anchor="middle" x="91.98" y="-287.3" font-family="Times,serif" font-size="14.00">orders</text>
<polyline fill="none" stroke="black" points="0,-279.1 183.96,-279.1"/>
<text xml:space="preserve" text-anchor="start" x="8" y="-262.5" font-family="Times,serif" font-size="14.00">customer_id : bigint</text>
<text xml:space="preserve" text-anchor="start" x="8" y="-245.7" font-family="Times,serif" font-size="14.00"> order_date : timestamp</text>
<text xml:space="preserve" text-anchor="start" x="8" y="-228.9" font-family="Times,serif" font-size="14.00"> total_amount : numeric(10,2)</text>
<polyline fill="none" stroke="black" points="0,-220.7 183.96,-220.7"/>
<text xml:space="preserve" text-anchor="start" x="8" y="-204.1" font-family="Times,serif" font-size="14.00">order_id : bigint</text>
</g>
<!-- order_details&#45;&gt;orders -->
<g id="edge1" class="edge">
<title>order_details-&gt;orders</title>
<path fill="none" stroke="#595959" d="M142.76,-374.11C142.76,-374.11 142.76,-315.9 142.76,-315.9"/>
<polygon fill="#595959" stroke="#595959" points="146.26,-315.9 142.76,-305.9 139.26,-315.9 146.26,-315.9"/>
<text xml:space="preserve" text-anchor="middle" x="173.69" y="-343.4" font-family="Times,serif" font-size="14.00">order_id</text>
</g>
<!-- products -->
<g id="node5" class="node">
<title>products</title>
<polygon fill="none" stroke="black" points="202.13,-179.1 202.13,-320.7 353.83,-320.7 353.83,-179.1 202.13,-179.1"/>
<text xml:space="preserve" text-anchor="middle" x="277.98" y="-304.1" font-family="Times,serif" font-size="14.00">products</text>
<polyline fill="none" stroke="black" points="202.13,-295.9 353.83,-295.9"/>
<text xml:space="preserve" text-anchor="start" x="210.13" y="-279.3" font-family="Times,serif" font-size="14.00">category_id : bigint</text>
<text xml:space="preserve" text-anchor="start" x="210.13" y="-262.5" font-family="Times,serif" font-size="14.00"> name : varchar(255)</text>
<text xml:space="preserve" text-anchor="start" x="210.13" y="-245.7" font-family="Times,serif" font-size="14.00"> description : text</text>
<text xml:space="preserve" text-anchor="start" x="210.13" y="-228.9" font-family="Times,serif" font-size="14.00"> price : numeric(10,2)</text>
<text xml:space="preserve" text-anchor="start" x="210.13" y="-212.1" font-family="Times,serif" font-size="14.00"> stock_quantity : integer</text>
<polyline fill="none" stroke="black" points="202.13,-203.9 353.83,-203.9"/>
<text xml:space="preserve" text-anchor="start" x="210.13" y="-187.3" font-family="Times,serif" font-size="14.00">product_id : bigint</text>
</g>
<!-- order_details&#45;&gt;products -->
<g id="edge2" class="edge">
<title>order_details-&gt;products</title>
<path fill="none" stroke="#595959" d="M235.27,-374.11C235.27,-374.11 235.27,-332.42 235.27,-332.42"/>
<polygon fill="#595959" stroke="#595959" points="238.77,-332.42 235.27,-322.42 231.77,-332.42 238.77,-332.42"/>
<text xml:space="preserve" text-anchor="middle" x="279.31" y="-343.4" font-family="Times,serif" font-size="14.00">product_id</text>
</g>
<!-- orders&#45;&gt;customers -->
<g id="edge3" class="edge">
<title>orders-&gt;customers</title>
<path fill="none" stroke="#595959" d="M90.98,-195.56C90.98,-195.56 90.98,-137.13 90.98,-137.13"/>
<polygon fill="#595959" stroke="#595959" points="94.48,-137.13 90.98,-127.13 87.48,-137.13 94.48,-137.13"/>
<text xml:space="preserve" text-anchor="middle" x="125.58" y="-148" font-family="Times,serif" font-size="14.00">customer_id</text>
</g>
<!-- products&#45;&gt;categories -->
<g id="edge4" class="edge">
<title>products-&gt;categories</title>
<path fill="none" stroke="#595959" d="M277.98,-178.67C277.98,-178.67 277.98,-111.96 277.98,-111.96"/>
<polygon fill="#595959" stroke="#595959" points="281.48,-111.96 277.98,-101.96 274.48,-111.96 281.48,-111.96"/>
<text xml:space="preserve" text-anchor="middle" x="311.02" y="-148" font-family="Times,serif" font-size="14.00">category_id</text>
</g>
</g>
</svg>